<svg xmlns="http://www.w3.org/2000/svg" xmlns:xlink="http://www.w3.org/1999/xlink" zoomAndPan="magnify" preserveAspectRatio="xMidYMid meet" version="1.0" viewBox="317.09 0 805.83 805.83"><path fill="#384688" d="M 1011.765625 111.148438 L 1011.765625 708.578125 C 1011.765625 731.640625 993.152344 750.257812 970.085938 750.257812 L 358.765625 750.257812 C 335.699219 750.257812 317.085938 731.640625 317.085938 708.578125 L 317.085938 111.148438 L 330.976562 97.253906 L 997.871094 97.253906 L 1011.765625 111.148438 " fill-opacity="1" fill-rule="nonzero"/><path fill="#b4dad5" d="M 1011.765625 41.679688 L 1011.765625 111.148438 L 317.085938 111.148438 L 317.085938 41.679688 C 317.085938 18.617188 335.699219 0 358.765625 0 L 970.085938 0 C 993.152344 0 1011.765625 18.617188 1011.765625 41.679688 " fill-opacity="1" fill-rule="nonzero"/><path fill="#9ec5bf" d="M 983.980469 736.363281 L 983.980469 778.042969 C 983.980469 793.347656 971.441406 805.832031 956.191406 805.832031 L 872.832031 805.832031 C 857.578125 805.832031 845.042969 793.347656 845.042969 778.042969 L 845.042969 736.363281 L 983.980469 736.363281 " fill-opacity="1" fill-rule="nonzero"/><path fill="#da513c" d="M 773.621094 597.589844 C 736.117188 598.566406 706.105469 629.230469 706.105469 666.894531 L 706.105469 788.03125 C 706.105469 801.652344 721.25 809.738281 732.535156 802.195312 L 827.40625 738.859375 L 773.621094 597.589844 " fill-opacity="1" fill-rule="nonzero"/><path fill="#da513c" d="M 1001.617188 738.859375 L 1096.484375 802.195312 C 1107.773438 809.738281 1122.914062 801.652344 1122.914062 788.03125 L 1122.914062 666.894531 C 1122.914062 629.230469 1092.902344 598.566406 1055.402344 597.589844 L 1001.617188 738.859375 " fill-opacity="1" fill-rule="nonzero"/><path fill="#b4dad5" d="M 1067.339844 486.007812 L 1067.339844 486.550781 C 1067.339844 597.859375 1030.382812 687.191406 1010.410156 727.355469 C 1003.300781 741.355469 988.972656 750.257812 973.125 750.257812 L 855.898438 750.257812 C 840.210938 750.257812 825.722656 741.355469 818.613281 727.355469 C 798.640625 687.191406 761.679688 597.859375 761.679688 486.550781 L 761.679688 486.007812 C 761.679688 452.902344 766.835938 420.28125 775.304688 389.023438 L 789.46875 375.128906 L 1039.554688 375.128906 L 1052.308594 389.023438 C 1061.535156 420.988281 1067.339844 453.769531 1067.339844 486.007812 " fill-opacity="1" fill-rule="nonzero"/><path fill="#da513c" d="M 1052.308594 389.023438 L 775.304688 389.023438 C 798.097656 304.140625 845.207031 229.789062 878.257812 184.796875 C 895.894531 160.589844 931.878906 160.589844 949.082031 185.066406 C 981.644531 231.199219 1028.589844 307.179688 1052.308594 389.023438 " fill-opacity="1" fill-rule="nonzero"/><path fill="#4e51ac" d="M 983.980469 389.023438 C 983.980469 427.394531 952.882812 458.492188 914.511719 458.492188 C 876.140625 458.492188 845.042969 427.394531 845.042969 389.023438 C 845.042969 350.652344 876.140625 319.554688 914.511719 319.554688 C 952.882812 319.554688 983.980469 350.652344 983.980469 389.023438 " fill-opacity="1" fill-rule="nonzero"/><path fill="#ffffff" d="M 386.550781 69.46875 L 372.660156 69.46875 C 365.007812 69.46875 358.765625 63.226562 358.765625 55.574219 C 358.765625 47.921875 365.007812 41.679688 372.660156 41.679688 L 386.550781 41.679688 C 394.203125 41.679688 400.445312 47.921875 400.445312 55.574219 C 400.445312 63.226562 394.203125 69.46875 386.550781 69.46875 " fill-opacity="1" fill-rule="nonzero"/><path fill="#ffffff" d="M 456.019531 69.46875 L 442.125 69.46875 C 434.472656 69.46875 428.234375 63.226562 428.234375 55.574219 C 428.234375 47.921875 434.472656 41.679688 442.125 41.679688 L 456.019531 41.679688 C 463.671875 41.679688 469.914062 47.921875 469.914062 55.574219 C 469.914062 63.226562 463.671875 69.46875 456.019531 69.46875 " fill-opacity="1" fill-rule="nonzero"/><path fill="#ffffff" d="M 525.488281 69.46875 L 511.59375 69.46875 C 503.941406 69.46875 497.703125 63.226562 497.703125 55.574219 C 497.703125 47.921875 503.941406 41.679688 511.59375 41.679688 L 525.488281 41.679688 C 533.140625 41.679688 539.382812 47.921875 539.382812 55.574219 C 539.382812 63.226562 533.140625 69.46875 525.488281 69.46875 " fill-opacity="1" fill-rule="nonzero"/><path fill="#9ec5bf" d="M 956.191406 69.46875 L 872.832031 69.46875 C 865.179688 69.46875 858.9375 63.226562 858.9375 55.574219 C 858.9375 47.921875 865.179688 41.679688 872.832031 41.679688 L 956.191406 41.679688 C 963.84375 41.679688 970.085938 47.921875 970.085938 55.574219 C 970.085938 63.226562 963.84375 69.46875 956.191406 69.46875 " fill-opacity="1" fill-rule="nonzero"/><path fill="#263064" d="M 469.914062 708.578125 C 462.261719 708.578125 456.019531 702.335938 456.019531 694.683594 L 456.019531 166.722656 C 456.019531 159.070312 462.261719 152.832031 469.914062 152.832031 C 477.566406 152.832031 483.808594 159.070312 483.808594 166.722656 L 483.808594 694.683594 C 483.808594 702.335938 477.566406 708.578125 469.914062 708.578125 " fill-opacity="1" fill-rule="nonzero"/><path fill="#ffffff" d="M 414.339844 250.085938 L 386.550781 250.085938 C 378.898438 250.085938 372.660156 243.84375 372.660156 236.191406 C 372.660156 228.539062 378.898438 222.296875 386.550781 222.296875 L 414.339844 222.296875 C 421.992188 222.296875 428.234375 228.539062 428.234375 236.191406 C 428.234375 243.84375 421.992188 250.085938 414.339844 250.085938 " fill-opacity="1" fill-rule="nonzero"/><path fill="#ffffff" d="M 414.339844 194.511719 L 386.550781 194.511719 C 378.898438 194.511719 372.660156 188.269531 372.660156 180.617188 C 372.660156 172.964844 378.898438 166.722656 386.550781 166.722656 L 414.339844 166.722656 C 421.992188 166.722656 428.234375 172.964844 428.234375 180.617188 C 428.234375 188.269531 421.992188 194.511719 414.339844 194.511719 " fill-opacity="1" fill-rule="nonzero"/><path fill="#ffffff" d="M 414.339844 305.660156 L 386.550781 305.660156 C 378.898438 305.660156 372.660156 299.417969 372.660156 291.765625 C 372.660156 284.113281 378.898438 277.875 386.550781 277.875 L 414.339844 277.875 C 421.992188 277.875 428.234375 284.113281 428.234375 291.765625 C 428.234375 299.417969 421.992188 305.660156 414.339844 305.660156 " fill-opacity="1" fill-rule="nonzero"/><path fill="#ffffff" d="M 414.339844 361.234375 L 386.550781 361.234375 C 378.898438 361.234375 372.660156 354.992188 372.660156 347.339844 C 372.660156 339.6875 378.898438 333.449219 386.550781 333.449219 L 414.339844 333.449219 C 421.992188 333.449219 428.234375 339.6875 428.234375 347.339844 C 428.234375 354.992188 421.992188 361.234375 414.339844 361.234375 " fill-opacity="1" fill-rule="nonzero"/><path fill="#ffffff" d="M 414.339844 416.808594 L 386.550781 416.808594 C 378.898438 416.808594 372.660156 410.566406 372.660156 402.914062 C 372.660156 395.261719 378.898438 389.023438 386.550781 389.023438 L 414.339844 389.023438 C 421.992188 389.023438 428.234375 395.261719 428.234375 402.914062 C 428.234375 410.566406 421.992188 416.808594 414.339844 416.808594 " fill-opacity="1" fill-rule="nonzero"/><path fill="#ffffff" d="M 414.339844 472.382812 L 386.550781 472.382812 C 378.898438 472.382812 372.660156 466.144531 372.660156 458.492188 C 372.660156 450.839844 378.898438 444.597656 386.550781 444.597656 L 414.339844 444.597656 C 421.992188 444.597656 428.234375 450.839844 428.234375 458.492188 C 428.234375 466.144531 421.992188 472.382812 414.339844 472.382812 " fill-opacity="1" fill-rule="nonzero"/><path fill="#ffffff" d="M 414.339844 527.957031 L 386.550781 527.957031 C 378.898438 527.957031 372.660156 521.71875 372.660156 514.066406 C 372.660156 506.414062 378.898438 500.171875 386.550781 500.171875 L 414.339844 500.171875 C 421.992188 500.171875 428.234375 506.414062 428.234375 514.066406 C 428.234375 521.71875 421.992188 527.957031 414.339844 527.957031 " fill-opacity="1" fill-rule="nonzero"/><path fill="#ffffff" d="M 414.339844 583.535156 L 386.550781 583.535156 C 378.898438 583.535156 372.660156 577.292969 372.660156 569.640625 C 372.660156 561.988281 378.898438 555.746094 386.550781 555.746094 L 414.339844 555.746094 C 421.992188 555.746094 428.234375 561.988281 428.234375 569.640625 C 428.234375 577.292969 421.992188 583.535156 414.339844 583.535156 " fill-opacity="1" fill-rule="nonzero"/><path fill="#ffffff" d="M 414.339844 639.109375 L 386.550781 639.109375 C 378.898438 639.109375 372.660156 632.867188 372.660156 625.214844 C 372.660156 617.5625 378.898438 611.320312 386.550781 611.320312 L 414.339844 611.320312 C 421.992188 611.320312 428.234375 617.5625 428.234375 625.214844 C 428.234375 632.867188 421.992188 639.109375 414.339844 639.109375 " fill-opacity="1" fill-rule="nonzero"/><path fill="#ffffff" d="M 414.339844 694.683594 L 386.550781 694.683594 C 378.898438 694.683594 372.660156 688.441406 372.660156 680.789062 C 372.660156 673.136719 378.898438 666.894531 386.550781 666.894531 L 414.339844 666.894531 C 421.992188 666.894531 428.234375 673.136719 428.234375 680.789062 C 428.234375 688.441406 421.992188 694.683594 414.339844 694.683594 " fill-opacity="1" fill-rule="nonzero"/><path fill="#ffffff" d="M 664.425781 250.085938 L 525.488281 250.085938 C 517.835938 250.085938 511.59375 243.84375 511.59375 236.191406 C 511.59375 228.539062 517.835938 222.296875 525.488281 222.296875 L 664.425781 222.296875 C 672.078125 222.296875 678.320312 228.539062 678.320312 236.191406 C 678.320312 243.84375 672.078125 250.085938 664.425781 250.085938 " fill-opacity="1" fill-rule="nonzero"/><path fill="#f4dc3b" d="M 650.53125 305.660156 L 567.167969 305.660156 C 559.515625 305.660156 553.277344 299.417969 553.277344 291.765625 C 553.277344 284.113281 559.515625 277.875 567.167969 277.875 L 650.53125 277.875 C 658.183594 277.875 664.425781 284.113281 664.425781 291.765625 C 664.425781 299.417969 658.183594 305.660156 650.53125 305.660156 " fill-opacity="1" fill-rule="nonzero"/><path fill="#525fad" d="M 747.789062 305.660156 L 706.105469 305.660156 C 698.453125 305.660156 692.210938 299.417969 692.210938 291.765625 C 692.210938 284.113281 698.453125 277.875 706.105469 277.875 L 747.789062 277.875 C 755.441406 277.875 761.679688 284.113281 761.679688 291.765625 C 761.679688 299.417969 755.441406 305.660156 747.789062 305.660156 " fill-opacity="1" fill-rule="nonzero"/><path fill="#f4dc3b" d="M 650.53125 416.808594 L 567.167969 416.808594 C 559.515625 416.808594 553.277344 410.566406 553.277344 402.914062 C 553.277344 395.261719 559.515625 389.023438 567.167969 389.023438 L 650.53125 389.023438 C 658.183594 389.023438 664.425781 395.261719 664.425781 402.914062 C 664.425781 410.566406 658.183594 416.808594 650.53125 416.808594 " fill-opacity="1" fill-rule="nonzero"/><path fill="#f4dc3b" d="M 636.636719 361.234375 L 553.277344 361.234375 C 545.625 361.234375 539.382812 354.992188 539.382812 347.339844 C 539.382812 339.6875 545.625 333.449219 553.277344 333.449219 L 636.636719 333.449219 C 644.289062 333.449219 650.53125 339.6875 650.53125 347.339844 C 650.53125 354.992188 644.289062 361.234375 636.636719 361.234375 " fill-opacity="1" fill-rule="nonzero"/><path fill="#525fad" d="M 733.894531 361.234375 L 692.210938 361.234375 C 684.558594 361.234375 678.320312 354.992188 678.320312 347.339844 C 678.320312 339.6875 684.558594 333.449219 692.210938 333.449219 L 733.894531 333.449219 C 741.546875 333.449219 747.789062 339.6875 747.789062 347.339844 C 747.789062 354.992188 741.546875 361.234375 733.894531 361.234375 " fill-opacity="1" fill-rule="nonzero"/><path fill="#ffffff" d="M 636.636719 194.511719 L 525.488281 194.511719 C 517.835938 194.511719 511.59375 188.269531 511.59375 180.617188 C 511.59375 172.964844 517.835938 166.722656 525.488281 166.722656 L 636.636719 166.722656 C 644.289062 166.722656 650.53125 172.964844 650.53125 180.617188 C 650.53125 188.269531 644.289062 194.511719 636.636719 194.511719 " fill-opacity="1" fill-rule="nonzero"/><path fill="#ffffff" d="M 664.425781 527.957031 L 525.488281 527.957031 C 517.835938 527.957031 511.59375 521.71875 511.59375 514.066406 C 511.59375 506.414062 517.835938 500.171875 525.488281 500.171875 L 664.425781 500.171875 C 672.078125 500.171875 678.320312 506.414062 678.320312 514.066406 C 678.320312 521.71875 672.078125 527.957031 664.425781 527.957031 " fill-opacity="1" fill-rule="nonzero"/><path fill="#f4dc3b" d="M 650.53125 583.535156 L 567.167969 583.535156 C 559.515625 583.535156 553.277344 577.292969 553.277344 569.640625 C 553.277344 561.988281 559.515625 555.746094 567.167969 555.746094 L 650.53125 555.746094 C 658.183594 555.746094 664.425781 561.988281 664.425781 569.640625 C 664.425781 577.292969 658.183594 583.535156 650.53125 583.535156 " fill-opacity="1" fill-rule="nonzero"/><path fill="#f4dc3b" d="M 650.53125 694.683594 L 567.167969 694.683594 C 559.515625 694.683594 553.277344 688.441406 553.277344 680.789062 C 553.277344 673.136719 559.515625 666.894531 567.167969 666.894531 L 650.53125 666.894531 C 658.183594 666.894531 664.425781 673.136719 664.425781 680.789062 C 664.425781 688.441406 658.183594 694.683594 650.53125 694.683594 " fill-opacity="1" fill-rule="nonzero"/><path fill="#f4dc3b" d="M 636.636719 639.109375 L 553.277344 639.109375 C 545.625 639.109375 539.382812 632.867188 539.382812 625.214844 C 539.382812 617.5625 545.625 611.320312 553.277344 611.320312 L 636.636719 611.320312 C 644.289062 611.320312 650.53125 617.5625 650.53125 625.214844 C 650.53125 632.867188 644.289062 639.109375 636.636719 639.109375 " fill-opacity="1" fill-rule="nonzero"/><path fill="#ffffff" d="M 636.636719 472.382812 L 525.488281 472.382812 C 517.835938 472.382812 511.59375 466.144531 511.59375 458.492188 C 511.59375 450.839844 517.835938 444.597656 525.488281 444.597656 L 636.636719 444.597656 C 644.289062 444.597656 650.53125 450.839844 650.53125 458.492188 C 650.53125 466.144531 644.289062 472.382812 636.636719 472.382812 " fill-opacity="1" fill-rule="nonzero"/><path fill="#cae5df" d="M 914.511719 333.449219 C 883.847656 333.449219 858.9375 358.359375 858.9375 389.023438 C 858.9375 419.6875 883.847656 444.597656 914.511719 444.597656 C 945.175781 444.597656 970.085938 419.6875 970.085938 389.023438 C 970.085938 358.359375 945.175781 333.449219 914.511719 333.449219 Z M 914.511719 472.382812 C 868.542969 472.382812 831.148438 434.992188 831.148438 389.023438 C 831.148438 343.054688 868.542969 305.660156 914.511719 305.660156 C 960.480469 305.660156 997.871094 343.054688 997.871094 389.023438 C 997.871094 434.992188 960.480469 472.382812 914.511719 472.382812 " fill-opacity="1" fill-rule="nonzero"/></svg>